<svg width="24" height="24" viewBox="0 0 24 24" fill="none" xmlns="http://www.w3.org/2000/svg">
<path d="M12.0003 15.2C13.7676 15.2 15.2003 13.7673 15.2003 12C15.2003 10.2327 13.7676 8.80002 12.0003 8.80002C10.233 8.80002 8.80029 10.2327 8.80029 12C8.80029 13.7673 10.233 15.2 12.0003 15.2Z" fill="white"/>
<path d="M8.99976 2L7.16976 4H3.99976C2.89976 4 1.99976 4.9 1.99976 6V18C1.99976 19.1 2.89976 20 3.99976 20H19.9998C21.0998 20 21.9998 19.1 21.9998 18V6C21.9998 4.9 21.0998 4 19.9998 4H16.8298L14.9998 2H8.99976ZM11.9998 17C9.23976 17 6.99976 14.76 6.99976 12C6.99976 9.24 9.23976 7 11.9998 7C14.7598 7 16.9998 9.24 16.9998 12C16.9998 14.76 14.7598 17 11.9998 17Z" fill="white"/>
</svg>
