<?xml version="1.0" standalone="no"?>
<!DOCTYPE svg PUBLIC "-//W3C//DTD SVG 20010904//EN"
 "http://www.w3.org/TR/2001/REC-SVG-20010904/DTD/svg10.dtd">
<svg version="1.0" xmlns="http://www.w3.org/2000/svg"
 width="88.000000pt" height="70.000000pt" viewBox="0 0 88.000000 70.000000"
 preserveAspectRatio="xMidYMid meet">

<g transform="translate(0.000000,70.000000) scale(0.100000,-0.100000)"
fill="#000000" stroke="none">
<path d="M310 512 l-65 -38 -3 -91 -3 -91 81 -47 81 -46 77 43 77 43 6 75 c3
41 9 84 14 94 9 20 -15 46 -42 46 -22 0 -37 -40 -23 -64 6 -12 10 -46 8 -75
l-3 -53 -60 -33 -60 -34 -55 33 -55 32 -3 71 -3 72 65 36 c45 25 63 41 59 51
-8 21 -21 17 -93 -24z"/>
</g>
</svg>
